<svg xmlns="http://www.w3.org/2000/svg" xmlns:xlink="http://www.w3.org/1999/xlink" width="400" zoomAndPan="magnify" viewBox="0 0 300 30.000001" height="40" preserveAspectRatio="xMidYMid meet" version="1.0"><defs><clipPath id="ef3fac25f0"><path d="M 111.417969 5.675781 L 122.859375 5.675781 L 122.859375 17.121094 L 111.417969 17.121094 Z M 111.417969 5.675781 " clip-rule="nonzero"/></clipPath><clipPath id="65b99d36e2"><path d="M 117.136719 5.675781 C 113.976562 5.675781 111.417969 8.238281 111.417969 11.398438 C 111.417969 14.558594 113.976562 17.121094 117.136719 17.121094 C 120.296875 17.121094 122.859375 14.558594 122.859375 11.398438 C 122.859375 8.238281 120.296875 5.675781 117.136719 5.675781 Z M 117.136719 5.675781 " clip-rule="nonzero"/></clipPath><clipPath id="8388106c9a"><path d="M 0.417969 0.675781 L 11.859375 0.675781 L 11.859375 12.121094 L 0.417969 12.121094 Z M 0.417969 0.675781 " clip-rule="nonzero"/></clipPath><clipPath id="186b8824f6"><path d="M 6.136719 0.675781 C 2.976562 0.675781 0.417969 3.238281 0.417969 6.398438 C 0.417969 9.558594 2.976562 12.121094 6.136719 12.121094 C 9.296875 12.121094 11.859375 9.558594 11.859375 6.398438 C 11.859375 3.238281 9.296875 0.675781 6.136719 0.675781 Z M 6.136719 0.675781 " clip-rule="nonzero"/></clipPath><clipPath id="0bffeb1e49"><rect x="0" width="12" y="0" height="13"/></clipPath><clipPath id="6b1dc87055"><path d="M 156.277344 0.289062 L 178.496094 0.289062 L 178.496094 22.507812 L 156.277344 22.507812 Z M 156.277344 0.289062 " clip-rule="nonzero"/></clipPath><clipPath id="f343f25954"><path d="M 167.386719 0.289062 C 161.25 0.289062 156.277344 5.261719 156.277344 11.398438 C 156.277344 17.535156 161.25 22.507812 167.386719 22.507812 C 173.523438 22.507812 178.496094 17.535156 178.496094 11.398438 C 178.496094 5.261719 173.523438 0.289062 167.386719 0.289062 Z M 167.386719 0.289062 " clip-rule="nonzero"/></clipPath><clipPath id="45c2e7e258"><path d="M 0.277344 0.289062 L 22.496094 0.289062 L 22.496094 22.507812 L 0.277344 22.507812 Z M 0.277344 0.289062 " clip-rule="nonzero"/></clipPath><clipPath id="5ac5995556"><path d="M 11.386719 0.289062 C 5.25 0.289062 0.277344 5.261719 0.277344 11.398438 C 0.277344 17.535156 5.25 22.507812 11.386719 22.507812 C 17.523438 22.507812 22.496094 17.535156 22.496094 11.398438 C 22.496094 5.261719 17.523438 0.289062 11.386719 0.289062 Z M 11.386719 0.289062 " clip-rule="nonzero"/></clipPath><clipPath id="a07ae166d7"><rect x="0" width="23" y="0" height="23"/></clipPath><clipPath id="292d49a8a0"><path d="M 4.496094 4.683594 L 102.402344 4.683594 L 102.402344 18.199219 L 4.496094 18.199219 Z M 4.496094 4.683594 " clip-rule="nonzero"/></clipPath><clipPath id="9d99e5eb8f"><path d="M 5.242188 11.234375 C 9.550781 11.566406 10.433594 13.664062 11.316406 13.550781 C 12.3125 13.550781 13.082031 11.566406 14.296875 10.902344 C 15.402344 10.238281 16.839844 9.464844 18.273438 9.6875 C 20.152344 10.128906 22.25 14.214844 24.238281 14.4375 C 26.226562 14.546875 28.324219 11.566406 30.09375 10.902344 C 31.417969 10.460938 32.523438 10.019531 33.738281 10.351562 C 35.503906 10.792969 37.269531 14.214844 39.257812 14.214844 C 41.355469 14.214844 44.007812 10.460938 46.105469 9.796875 C 47.429688 9.355469 48.644531 9.355469 49.640625 9.464844 C 50.414062 9.578125 50.964844 9.6875 51.628906 10.128906 C 52.84375 11.011719 53.726562 14.546875 55.382812 14.65625 C 57.8125 14.878906 62.339844 7.257812 65.210938 5.820312 C 66.980469 4.9375 68.082031 4.496094 69.851562 4.9375 C 73.164062 5.820312 77.800781 15.210938 81.667969 15.320312 C 85.3125 15.429688 89.839844 8.03125 92.601562 6.707031 C 94.039062 5.933594 95.253906 5.820312 96.246094 5.820312 C 97.019531 5.820312 97.460938 5.710938 98.234375 6.042969 C 99.339844 6.59375 101.769531 8.582031 102.101562 9.6875 C 102.320312 10.238281 102.101562 11.011719 101.769531 11.234375 C 101.546875 11.453125 100.441406 11.34375 100.441406 11.34375 C 100.441406 11.34375 101.65625 11.453125 101.65625 11.34375 C 101.65625 11.234375 100.113281 11.234375 99.890625 10.792969 C 99.78125 10.460938 100.222656 9.246094 100.554688 9.136719 C 100.996094 9.023438 102.320312 9.90625 102.320312 10.238281 C 102.320312 10.679688 100.996094 11.566406 100.664062 11.453125 C 100.222656 11.34375 99.890625 9.796875 100.113281 9.464844 C 100.332031 9.136719 101.65625 9.136719 101.988281 9.355469 C 102.210938 9.6875 102.210938 11.011719 101.769531 11.234375 C 100.996094 11.785156 97.683594 8.363281 95.253906 8.691406 C 91.71875 9.136719 86.304688 16.867188 83.324219 17.859375 C 81.777344 18.300781 80.894531 18.300781 79.570312 17.75 C 76.917969 16.644531 72.613281 9.578125 70.402344 8.363281 C 69.410156 7.808594 68.96875 7.476562 67.972656 7.808594 C 65.433594 8.363281 59.800781 16.535156 56.820312 17.195312 C 55.273438 17.527344 53.945312 16.867188 52.730469 16.09375 C 51.296875 15.210938 50.300781 12.667969 49.308594 12.226562 C 48.644531 11.894531 48.316406 11.894531 47.542969 12.007812 C 45.773438 12.335938 40.695312 16.425781 38.816406 16.867188 C 38.042969 17.085938 37.710938 17.085938 37.050781 16.867188 C 35.835938 16.3125 34.507812 13.222656 32.742188 13 C 30.535156 12.667969 27.109375 17.308594 24.570312 17.195312 C 22.140625 16.976562 20.152344 12.558594 17.941406 12.449219 C 15.734375 12.449219 13.527344 16.203125 11.316406 16.425781 C 9.109375 16.535156 5.023438 14.546875 4.578125 13.441406 C 4.25 12.78125 5.242188 11.234375 5.242188 11.234375 " clip-rule="nonzero"/></clipPath><clipPath id="50648a2883"><path d="M 0.496094 0.683594 L 98.355469 0.683594 L 98.355469 14.199219 L 0.496094 14.199219 Z M 0.496094 0.683594 " clip-rule="nonzero"/></clipPath><clipPath id="c453b02a31"><path d="M 1.242188 7.234375 C 5.550781 7.566406 6.433594 9.664062 7.316406 9.550781 C 8.3125 9.550781 9.082031 7.566406 10.296875 6.902344 C 11.402344 6.238281 12.839844 5.464844 14.273438 5.6875 C 16.152344 6.128906 18.25 10.214844 20.238281 10.4375 C 22.226562 10.546875 24.324219 7.566406 26.09375 6.902344 C 27.417969 6.460938 28.523438 6.019531 29.738281 6.351562 C 31.503906 6.792969 33.269531 10.214844 35.257812 10.214844 C 37.355469 10.214844 40.007812 6.460938 42.105469 5.796875 C 43.429688 5.355469 44.644531 5.355469 45.640625 5.464844 C 46.414062 5.578125 46.964844 5.6875 47.628906 6.128906 C 48.84375 7.011719 49.726562 10.546875 51.382812 10.65625 C 53.8125 10.878906 58.339844 3.257812 61.210938 1.820312 C 62.980469 0.9375 64.082031 0.496094 65.851562 0.9375 C 69.164062 1.820312 73.800781 11.210938 77.667969 11.320312 C 81.3125 11.429688 85.839844 4.03125 88.601562 2.707031 C 90.039062 1.933594 91.253906 1.820312 92.246094 1.820312 C 93.019531 1.820312 93.460938 1.710938 94.234375 2.042969 C 95.339844 2.59375 97.769531 4.582031 98.101562 5.6875 C 98.320312 6.238281 98.101562 7.011719 97.769531 7.234375 C 97.546875 7.453125 96.441406 7.34375 96.441406 7.34375 C 96.441406 7.34375 97.65625 7.453125 97.65625 7.34375 C 97.65625 7.234375 96.113281 7.234375 95.890625 6.792969 C 95.78125 6.460938 96.222656 5.246094 96.554688 5.136719 C 96.996094 5.023438 98.320312 5.90625 98.320312 6.238281 C 98.320312 6.679688 96.996094 7.566406 96.664062 7.453125 C 96.222656 7.34375 95.890625 5.796875 96.113281 5.464844 C 96.332031 5.136719 97.65625 5.136719 97.988281 5.355469 C 98.210938 5.6875 98.210938 7.011719 97.769531 7.234375 C 96.996094 7.785156 93.683594 4.363281 91.253906 4.691406 C 87.71875 5.136719 82.304688 12.867188 79.324219 13.859375 C 77.777344 14.300781 76.894531 14.300781 75.570312 13.75 C 72.917969 12.644531 68.613281 5.578125 66.402344 4.363281 C 65.410156 3.808594 64.96875 3.476562 63.972656 3.808594 C 61.433594 4.363281 55.800781 12.535156 52.820312 13.195312 C 51.273438 13.527344 49.945312 12.867188 48.730469 12.09375 C 47.296875 11.210938 46.300781 8.667969 45.308594 8.226562 C 44.644531 7.894531 44.316406 7.894531 43.542969 8.007812 C 41.773438 8.335938 36.695312 12.425781 34.816406 12.867188 C 34.042969 13.085938 33.710938 13.085938 33.050781 12.867188 C 31.835938 12.3125 30.507812 9.222656 28.742188 9 C 26.535156 8.667969 23.109375 13.308594 20.570312 13.195312 C 18.140625 12.976562 16.152344 8.558594 13.941406 8.449219 C 11.734375 8.449219 9.527344 12.203125 7.316406 12.425781 C 5.109375 12.535156 1.023438 10.546875 0.578125 9.441406 C 0.25 8.78125 1.242188 7.234375 1.242188 7.234375 " clip-rule="nonzero"/></clipPath><clipPath id="4fafd8a60d"><rect x="0" width="99" y="0" height="15"/></clipPath><clipPath id="eea5c9831b"><path d="M 187.59375 4.425781 L 281.449219 4.425781 L 281.449219 18.371094 L 187.59375 18.371094 Z M 187.59375 4.425781 " clip-rule="nonzero"/></clipPath><clipPath id="8f722bc54c"><path d="M 189.597656 13.222656 C 193.585938 13.703125 194.984375 8.421875 196.925781 6.789062 C 198.433594 5.542969 200.375 4.390625 201.882812 4.484375 C 202.960938 4.484375 203.929688 5.253906 204.902344 6.117188 C 206.410156 7.460938 207.59375 11.109375 209.210938 12.839844 C 210.398438 14.085938 211.582031 15.816406 213.089844 15.816406 C 215.140625 15.71875 218.050781 10.246094 220.421875 8.613281 C 222.035156 7.558594 223.652344 6.5 225.160156 6.40625 C 226.238281 6.308594 227.101562 6.886719 228.394531 7.460938 C 230.550781 8.613281 233.246094 13.03125 236.15625 13.320312 C 239.496094 13.703125 244.023438 8.132812 247.578125 8.324219 C 250.703125 8.421875 253.828125 13.128906 256.414062 13.128906 C 258.464844 13.03125 260.1875 9.957031 262.019531 9.765625 C 263.746094 9.574219 265.359375 11.109375 267.191406 11.207031 C 269.023438 11.207031 270.859375 9.863281 272.90625 9.957031 C 275.492188 10.054688 281.203125 11.589844 281.417969 12.457031 C 281.527344 12.839844 280.449219 13.800781 280.019531 13.703125 C 279.585938 13.703125 278.941406 12.742188 279.046875 12.457031 C 279.15625 12.070312 280.558594 11.589844 280.878906 11.78125 C 281.203125 11.976562 281.527344 12.742188 281.3125 13.03125 C 281.203125 13.414062 280.773438 13.609375 280.125 13.800781 C 278.726562 13.992188 275.167969 12.457031 272.90625 12.457031 C 270.859375 12.550781 269.132812 13.703125 267.300781 13.703125 C 265.46875 13.703125 263.746094 12.261719 261.914062 12.457031 C 259.863281 12.742188 257.816406 15.71875 255.660156 15.625 C 253.289062 15.433594 251.027344 10.824219 248.117188 10.628906 C 244.882812 10.34375 239.710938 15.527344 236.910156 15.914062 C 235.507812 16.007812 234.644531 15.71875 233.460938 15.046875 C 231.304688 14.085938 227.855469 9.765625 226.238281 9.09375 C 225.484375 8.804688 225.269531 8.710938 224.515625 8.902344 C 222.792969 9.476562 218.804688 15.527344 216.648438 16.96875 C 215.460938 17.738281 214.601562 18.3125 213.523438 18.3125 C 212.015625 18.214844 210.289062 17.449219 208.671875 16.199219 C 206.300781 14.375 203.929688 6.980469 201.34375 6.886719 C 198.757812 6.789062 195.632812 15.625 192.9375 16.296875 C 191.214844 16.777344 188.410156 15.527344 187.871094 14.855469 C 187.550781 14.375 187.65625 13.609375 187.980469 13.320312 C 188.304688 13.03125 189.597656 13.222656 189.597656 13.222656 " clip-rule="nonzero"/></clipPath><clipPath id="a486cbc52a"><path d="M 0.59375 0.425781 L 94.449219 0.425781 L 94.449219 14.367188 L 0.59375 14.367188 Z M 0.59375 0.425781 " clip-rule="nonzero"/></clipPath><clipPath id="fa86152c78"><path d="M 2.597656 9.222656 C 6.585938 9.703125 7.984375 4.421875 9.925781 2.789062 C 11.433594 1.542969 13.375 0.390625 14.882812 0.484375 C 15.960938 0.484375 16.929688 1.253906 17.902344 2.117188 C 19.410156 3.460938 20.59375 7.109375 22.210938 8.839844 C 23.398438 10.085938 24.582031 11.816406 26.089844 11.816406 C 28.140625 11.71875 31.050781 6.246094 33.421875 4.613281 C 35.035156 3.558594 36.652344 2.5 38.160156 2.40625 C 39.238281 2.308594 40.101562 2.886719 41.394531 3.460938 C 43.550781 4.613281 46.246094 9.03125 49.15625 9.320312 C 52.496094 9.703125 57.023438 4.132812 60.578125 4.324219 C 63.703125 4.421875 66.828125 9.128906 69.414062 9.128906 C 71.464844 9.03125 73.1875 5.957031 75.019531 5.765625 C 76.746094 5.574219 78.359375 7.109375 80.191406 7.207031 C 82.023438 7.207031 83.859375 5.863281 85.90625 5.957031 C 88.492188 6.054688 94.203125 7.589844 94.417969 8.457031 C 94.527344 8.839844 93.449219 9.800781 93.019531 9.703125 C 92.585938 9.703125 91.941406 8.742188 92.046875 8.457031 C 92.15625 8.070312 93.558594 7.589844 93.878906 7.78125 C 94.203125 7.976562 94.527344 8.742188 94.3125 9.03125 C 94.203125 9.414062 93.773438 9.609375 93.125 9.800781 C 91.726562 9.992188 88.167969 8.457031 85.90625 8.457031 C 83.859375 8.550781 82.132812 9.703125 80.300781 9.703125 C 78.46875 9.703125 76.746094 8.261719 74.914062 8.457031 C 72.863281 8.742188 70.816406 11.71875 68.660156 11.625 C 66.289062 11.433594 64.027344 6.824219 61.117188 6.628906 C 57.882812 6.34375 52.710938 11.527344 49.910156 11.914062 C 48.507812 12.007812 47.644531 11.71875 46.460938 11.046875 C 44.304688 10.085938 40.855469 5.765625 39.238281 5.09375 C 38.484375 4.804688 38.269531 4.710938 37.515625 4.902344 C 35.792969 5.476562 31.804688 11.527344 29.648438 12.96875 C 28.460938 13.738281 27.601562 14.3125 26.523438 14.3125 C 25.015625 14.214844 23.289062 13.449219 21.671875 12.199219 C 19.300781 10.375 16.929688 2.980469 14.34375 2.886719 C 11.757812 2.789062 8.632812 11.625 5.9375 12.296875 C 4.214844 12.777344 1.410156 11.527344 0.871094 10.855469 C 0.550781 10.375 0.65625 9.609375 0.980469 9.320312 C 1.304688 9.03125 2.597656 9.222656 2.597656 9.222656 " clip-rule="nonzero"/></clipPath><clipPath id="0afbfdf23f"><rect x="0" width="95" y="0" height="15"/></clipPath><clipPath id="b276eabaeb"><path d="M 129.835938 7 L 149.167969 7 L 149.167969 15.984375 L 129.835938 15.984375 Z M 129.835938 7 " clip-rule="nonzero"/></clipPath><clipPath id="a435e889fe"><path d="M 129.890625 11.355469 C 132.21875 8.128906 133.652344 7.230469 134.730469 7.050781 C 135.714844 6.960938 136.523438 7.140625 137.597656 7.679688 C 139.210938 8.484375 141.449219 13.234375 143.152344 13.148438 C 144.765625 13.058594 146.46875 8.574219 147.542969 8.128906 C 148.082031 7.859375 148.710938 7.949219 148.890625 8.21875 C 149.15625 8.398438 149.246094 9.113281 149.066406 9.382812 C 148.890625 9.652344 147.457031 9.652344 147.367188 9.472656 C 147.1875 9.203125 147.722656 7.949219 147.992188 7.949219 C 148.351562 7.859375 149.246094 8.84375 149.15625 9.113281 C 149.066406 9.472656 147.902344 9.921875 147.632812 9.742188 C 147.367188 9.5625 147.1875 8.574219 147.457031 8.308594 C 147.632812 8.039062 148.441406 7.859375 148.710938 8.039062 C 148.980469 8.21875 149.246094 8.753906 149.066406 9.382812 C 148.800781 10.726562 145.929688 15.117188 144.140625 15.746094 C 142.972656 16.195312 141.628906 15.746094 140.464844 15.117188 C 138.671875 14.132812 137.058594 9.742188 135.355469 9.652344 C 134.011719 9.472656 132.21875 12.609375 131.234375 12.789062 C 130.785156 12.96875 130.25 12.789062 130.070312 12.519531 C 129.800781 12.339844 129.890625 11.355469 129.890625 11.355469 " clip-rule="nonzero"/></clipPath><clipPath id="1b7d377993"><path d="M 0.835938 0 L 20.167969 0 L 20.167969 8.984375 L 0.835938 8.984375 Z M 0.835938 0 " clip-rule="nonzero"/></clipPath><clipPath id="25f8eb596e"><path d="M 0.890625 4.355469 C 3.21875 1.128906 4.652344 0.230469 5.730469 0.0507812 C 6.714844 -0.0390625 7.523438 0.140625 8.597656 0.679688 C 10.210938 1.484375 12.449219 6.234375 14.152344 6.148438 C 15.765625 6.058594 17.46875 1.574219 18.542969 1.128906 C 19.082031 0.859375 19.710938 0.949219 19.890625 1.21875 C 20.15625 1.398438 20.246094 2.113281 20.066406 2.382812 C 19.890625 2.652344 18.457031 2.652344 18.367188 2.472656 C 18.1875 2.203125 18.722656 0.949219 18.992188 0.949219 C 19.351562 0.859375 20.246094 1.84375 20.15625 2.113281 C 20.066406 2.472656 18.902344 2.921875 18.632812 2.742188 C 18.367188 2.5625 18.1875 1.574219 18.457031 1.308594 C 18.632812 1.039062 19.441406 0.859375 19.710938 1.039062 C 19.980469 1.21875 20.246094 1.753906 20.066406 2.382812 C 19.800781 3.726562 16.929688 8.117188 15.140625 8.746094 C 13.972656 9.195312 12.628906 8.746094 11.464844 8.117188 C 9.671875 7.132812 8.058594 2.742188 6.355469 2.652344 C 5.011719 2.472656 3.21875 5.609375 2.234375 5.789062 C 1.785156 5.96875 1.25 5.789062 1.070312 5.519531 C 0.800781 5.339844 0.890625 4.355469 0.890625 4.355469 " clip-rule="nonzero"/></clipPath><clipPath id="d188feb1d1"><rect x="0" width="21" y="0" height="9"/></clipPath><clipPath id="706d9bbfdc"><rect x="0" width="287" y="0" height="23"/></clipPath></defs><g transform="matrix(1, 0, 0, 1, 7, 3)"><g clip-path="url(#706d9bbfdc)"><g clip-path="url(#ef3fac25f0)"><g clip-path="url(#65b99d36e2)"><g transform="matrix(1, 0, 0, 1, 111, 5)"><g clip-path="url(#0bffeb1e49)"><g clip-path="url(#8388106c9a)"><g clip-path="url(#186b8824f6)"><path fill="#000000" d="M 0.417969 0.675781 L 11.859375 0.675781 L 11.859375 12.121094 L 0.417969 12.121094 Z M 0.417969 0.675781 " fill-opacity="1" fill-rule="nonzero"/></g></g></g></g></g></g><g clip-path="url(#6b1dc87055)"><g clip-path="url(#f343f25954)"><g transform="matrix(1, 0, 0, 1, 156, 0.000000000000005773)"><g clip-path="url(#a07ae166d7)"><g clip-path="url(#45c2e7e258)"><g clip-path="url(#5ac5995556)"><path fill="#000000" d="M 0.277344 0.289062 L 22.496094 0.289062 L 22.496094 22.507812 L 0.277344 22.507812 Z M 0.277344 0.289062 " fill-opacity="1" fill-rule="nonzero"/></g></g></g></g></g></g><g clip-path="url(#292d49a8a0)"><g clip-path="url(#9d99e5eb8f)"><g transform="matrix(1, 0, 0, 1, 4, 4)"><g clip-path="url(#4fafd8a60d)"><g clip-path="url(#50648a2883)"><g clip-path="url(#c453b02a31)"><rect x="-120.2" width="518.4" fill="#000000" y="-17.92" height="51.840002" fill-opacity="1"/></g></g></g></g></g></g><g clip-path="url(#eea5c9831b)"><g clip-path="url(#8f722bc54c)"><g transform="matrix(1, 0, 0, 1, 187, 4)"><g clip-path="url(#0afbfdf23f)"><g clip-path="url(#a486cbc52a)"><g clip-path="url(#fa86152c78)"><rect x="-303.2" width="518.4" fill="#000000" y="-17.92" height="51.840002" fill-opacity="1"/></g></g></g></g></g></g><g clip-path="url(#b276eabaeb)"><g clip-path="url(#a435e889fe)"><g transform="matrix(1, 0, 0, 1, 129, 7)"><g clip-path="url(#d188feb1d1)"><g clip-path="url(#1b7d377993)"><g clip-path="url(#25f8eb596e)"><rect x="-245.2" width="518.4" fill="#000000" y="-20.92" height="51.840002" fill-opacity="1"/></g></g></g></g></g></g></g></g></svg>