<svg width="321" height="293" viewBox="0 0 321 293" fill="none" xmlns="http://www.w3.org/2000/svg">
<path opacity="0.1" d="M221.884 277.645C210.993 291.104 193.894 293.863 178.335 292.791C129.458 289.421 85.3392 256.66 47.1744 219.603C33.3567 206.191 19.7552 191.734 10.7882 173.26C-7.4814 135.659 -2.05275 83.5644 23.3308 52.5841C31.9697 42.0451 42.4393 33.9493 53.1885 26.8008C72.3007 14.0619 92.9229 3.83869 114.612 0.91925C130.081 -1.15128 145.741 0.531041 161.117 3.42978C204.084 11.5255 246.257 29.4149 281.603 60.0069C297.106 73.4654 311.722 90.1331 318.112 111.848C324.503 133.562 320.413 161.08 304.582 173.933C298.034 179.249 290.205 181.65 282.543 183.902C271.26 187.22 259.799 190.492 249.616 197.241C239.102 204.209 226.653 217.683 228.737 233.103C230.966 249.652 232.76 264.187 221.884 277.645Z" fill="#4E2170"/>
</svg>